<mxfile host="app.diagrams.net" modified="2024-07-08T17:50:59.114Z" agent="Mozilla/5.0 (Windows NT 10.0; Win64; x64) AppleWebKit/537.36 (KHTML, like Gecko) Chrome/126.0.0.0 Safari/537.36" version="24.6.4" etag="uqTQStC1bRzDPCG5Q2qB" type="github">
  <diagram name="Страница — 1" id="iWGhFlp72YeJfTSD2jHt">
    <mxGraphModel>
      <root>
        <mxCell id="0" />
        <mxCell id="1" parent="0" />
      </root>
    </mxGraphModel>
  </diagram>
</mxfile>
